<svg version="1" xmlns="http://www.w3.org/2000/svg" width="638.667" height="638.667" viewBox="0 0 479.000000 479.000000"><path d="M347.2 93l-12.3 16.9-4.9-3.5c-9.2-6.6-22.3-9.5-33.5-7.5-3.3.6-9.2 2.7-13.1 4.7-6.6 3.3-7.5 3.5-11 2.5-2.2-.6-6.6-1.1-9.9-1.1-20.8 0-38.9 14.2-44.6 34.8-2.6 9.2-2.5 12.3 2.1 41.5 2.2 14.1 4 26 4 26.5s-2.1-.1-4.7-1.3c-7.6-3.6-18.1-5.5-30-5.5-17.4 0-29.5 3.9-39.1 12.5-5.3 4.8-6.4 5.1-40.2 10.1-6.3.9-12.6 2.2-14 2.9-3.7 1.9-5.4 4-20.9 25.4C63.7 267.7 61 272 61 274.7c0 3.9 2.9 7.3 6.2 7.3 2.3 0 12.8-1.5 18-2.6 2.6-.5 2 .9-13.2 32.1-8.8 18-16 33.3-16 34.1 0 2.3 1.7 5.1 3.5 5.8 1.9.7 71.7-9.9 75.6-11.5 3.3-1.3 6.1-4.3 13-14.1 3-4.3 5.7-7.7 6.1-7.5.4.1 3.7 5.3 7.5 11.5 8.6 14.2 20 30.3 23.1 32.7 2.9 2.1 7.7 1.1 7.7-1.7 0-.9 1-2.7 2.1-4 3.1-3.4 13-17.6 23-32.8l8.9-13.4.7 3.9c.3 2.2.9 5.6 1.2 7.5l.6 3.6 23.9-3.7c13.2-2 24.4-4 24.9-4.3.6-.3.7-2.1.2-4.3-.4-2.1-2.7-16.5-5.1-32-3.6-23.4-4.1-28.4-3-29.7 1.6-1.9 6.4-2.1 7.9-.4.5.7 2.9 14.1 5.2 29.8 4.9 33.5 5 34.3 5.5 34.8.2.2 10.5-1.2 23-3.3 12.4-2 23.4-3.7 24.5-3.8 1.1-.1 2-.4 2-.7-.1-.3-.5-2.5-.9-4.8-.8-4.2-.8-4.3 1.3-3.7 12.1 3.7 13.7 3.9 25 3.9 10.1 0 12.1-.3 13.1-1.8.8-1 1.4-1.3 1.7-.6.2.7 6.6.1 20.3-2.1 18.8-3.1 20.1-3.4 23.3-6.3 2.6-2.5 3.5-4.2 3.9-7.6.6-5.7-6.9-53.8-9.6-61.4-4.4-12.6-14.8-25-26.4-31.6-3.1-1.7-5.7-3.6-5.7-4.1 0-.9-5-33.4-8.5-55.4-1.3-8.3-2.6-16.8-2.9-19-.3-2.2-1.2-8.3-2-13.5-.8-5.2-1.8-11.8-2.2-14.5-.8-6.6-2.7-9.5-6.2-9.5-2.4 0-4.3 2.1-15 17zm13.8 55c3.4 22.8 6.3 42.4 6.6 43.5.5 1.9-.3 2.2-10.2 3.8-5.9 1-10.8 1.6-10.9 1.5-.1-.2-2.3-14.3-4.9-31.3-2.6-17.1-4.9-32.1-5.2-33.6-.4-2 1.4-5.1 8.8-15.3 5.1-7 9.4-12.1 9.5-11.4.1.7 3 20 6.3 42.8zm-48.9-33c7.4 2.7 12.4 6.5 15.8 11.9 3.9 6.1 4.3 8 9.1 39.1 2.2 14.6 4.3 27.6 4.6 29 .5 2.6.4 2.6-10.2 4.3-5.9 1-10.8 1.6-10.9 1.5-.1-.2-2.1-13.1-4.5-28.8-2.4-15.7-4.7-29.5-5.1-30.7-1.3-3.6-6.8-6.5-10.9-5.9-4.1.6-9 5.5-9 8.9 0 1.2 2 15 4.4 30.7 2.5 16.2 4 28.7 3.5 29.1-1.8 1.1-19.1 3.1-19.8 2.2-.4-.4-2.7-13.4-5-28.7-2.3-15.4-4.9-29.2-5.7-30.8-3.1-6-10.7-6.7-16-1.4-1.9 1.9-3.4 4.1-3.4 5 0 1.2 5.2 35.7 8.6 56.2l.6 4.2-6.8 1.1c-3.8.6-8.7 1.3-10.9 1.4l-3.9.2-.9-6c-.4-3.3-2.4-16.4-4.3-29-4-25.9-4.1-33.2-.4-40.5 3.9-7.8 7.8-11.8 14.6-15.1 5.5-2.8 7.6-3.2 13.7-3.2 5 0 8.9.7 12.5 2.2l5.4 2.1 4.3-3.8c7.9-7 20.4-9.1 30.6-5.2zm57.5 85.4c7.9 2.1 14.8 6.3 20.9 12.7 9.2 9.6 10.9 14.6 15.1 42.8 2 13.3 3.3 24.8 3.1 25.5-.3.7-4 1.8-8.9 2.4-13.4 1.9-12.3 2.6-13.8-8.1-.7-5-1.6-9.8-2-10.5-.4-.8-3.8 3.2-9.5 11.1-8 11.4-9.1 12.5-12.4 13.1-7.6 1.2-21.1-2.5-28.7-7.9-13.5-9.6-21.3-28.5-18.5-44.6 4.8-26.4 29.8-43.1 54.7-36.5zm-81.1 16.5c8.7 4.3 15.2 10.8 19.4 19.3 2.8 5.7 3.8 9.9 7.1 31.4 2.2 13.7 4 25.9 4 27 0 2-1 2.3-10.6 3.8-5.9.9-10.8 1.5-10.9 1.4-.2-.2-1.9-11.1-3.9-24.3-4.1-26.9-4.7-29.3-8.3-33.6-3.6-4.2-7.7-6-13.8-6-8.7 0-14.8 3.9-17.9 11.5-2.2 5.2-2.1 6.6 2.3 34.1 2.1 13.2 3.7 24.1 3.6 24.2-.4.6-20 3.3-21 2.9-.8-.3-1.6-3.3-2-7.3-.6-6.4-.4-7.2 2.9-14.3 5.8-12.2 7.1-18.7 7.1-34-.1-12.1-.4-14.2-2.7-20.4-1.5-3.9-2.5-7.3-2.3-7.6 1.2-1.9 11.6-8.2 16.5-10 4.3-1.6 7.5-2 14.5-1.8 8 .3 9.9.7 16 3.7zm-153 23.7c-.8 3.8-1.5 10.2-1.5 14.1 0 7.2-.2 7.6-10.5 28.9-5.8 12-10.4 21.9-10.2 22.1.2.2 7.3-.8 15.8-2.1s15.6-2.3 15.8-2.1c.4.4-15.6 23-17.3 24.5-1.3 1-51.1 9.3-52.8 8.8-.5-.2 2.8-7.8 7.3-16.8 11.8-23.8 27-56.2 26.5-56.7-.2-.2-6.3.6-13.6 1.7-7.2 1.2-13.3 2-13.5 1.8-.1-.2 3.7-5.9 8.6-12.8l8.9-12.5 18.8-3.1c10.3-1.6 18.8-3 18.9-2.9.2.1-.4 3.3-1.2 7.1zm64.9-4.2c15.5 6.5 20.7 27.9 9.9 40.6-5.7 6.7-11.5 9.4-19.7 9.5-10.9 0-18.9-4.8-23.6-14.3-9.1-18.1 5-39.5 24.8-37.7 3 .3 6.8 1.1 8.6 1.9z"/><path d="M350 223.6c-8.1 3.5-13.2 11.4-13.2 20.5 0 10.9 6 18.8 16.3 21.5 4.4 1.2 6.7 1.1 17.6-.6 6.9-1.1 12.7-2.1 12.9-2.3.7-.7-3.5-24.4-4.9-27.8-4.4-10.4-18.2-15.9-28.7-11.3zm15 13.9c2 1 3.2 2.7 3.9 5.3 2 6.9 1.6 8-3.1 9-5.5 1.1-9.5-.2-11.3-3.9-2.1-4-1.9-5.7 1.4-9s5-3.5 9.1-1.4zM184 252.8c-4.5 2.2-7.5 7.9-6.6 12.7.9 4.7 6.6 9.5 11.2 9.5 13.5 0 17.2-17.4 4.8-22.6-4.3-1.8-5.2-1.8-9.4.4zm3.4 14.8c.7 1.9-1 4.4-2.9 4.4s-3.8-2.8-3.1-4.5c.7-2 5.2-1.9 6 .1z"/></svg>